<svg id="burger-1" xmlns="http://www.w3.org/2000/svg" width="512" height="512" viewBox="0 0 512 512">
  <g id="Burger_1_">
    <g id="Group_2" data-name="Group 2">
      <path id="Path_4" data-name="Path 4" d="M407,512H105A105.127,105.127,0,0,1,0,407a14.991,14.991,0,0,1,15-15H497a14.991,14.991,0,0,1,15,15A105.127,105.127,0,0,1,407,512Z" fill="#ff5a01"/>
    </g>
    <g id="Group_3" data-name="Group 3">
      <path id="Path_5" data-name="Path 5" d="M256,0C115.39,0,0,87.48,0,195a14.991,14.991,0,0,0,15,15H497a14.991,14.991,0,0,0,15-15C512,87.48,396.61,0,256,0ZM145.605,115.605l-30,30a15,15,0,0,1-21.211-21.211l30-30a15,15,0,0,1,21.211,21.211Zm91,0-30,30a15,15,0,0,1-21.211-21.211l30-30a15,15,0,0,1,21.211,21.211Zm90,0-30,30a15,15,0,0,1-21.211-21.211l30-30a15,15,0,1,1,21.211,21.211Zm82.666,0-30,30a15,15,0,1,1-21.211-21.211l30-30a15,15,0,0,1,21.211,21.211Z" fill="#ff5a01"/>
    </g>
  </g>
  <g id="Burger_4_">
    <g id="Group_4" data-name="Group 4">
      <path id="Path_6" data-name="Path 6" d="M15,271a70.6,70.6,0,0,1,18.9,2.4c-2.117,6.82-2.71,8.859-3.9,30A41.244,41.244,0,0,0,15,301a15,15,0,0,1,0-30Z" fill="#ff5a01"/>
      <path id="Path_7" data-name="Path 7" d="M512,286a14.854,14.854,0,0,1-15,15,41.244,41.244,0,0,0-15,2.4c-.324-5.758.288-16.508-3.9-30A70.6,70.6,0,0,1,497,271,14.853,14.853,0,0,1,512,286Z" fill="#ff5a01"/>
    </g>
  </g>
  <path id="Path_8" data-name="Path 8" d="M33.9,273.4c13.5,3.3,22.5,9.9,30,15.6,9.3,6.9,16.2,12,31.2,12s21.6-5.1,30.9-12c10.8-8.1,25-18,49.9-18,25.2,0,38.4,9.9,49.2,18,9.3,6.9,15.9,12,30.9,12s21.6-5.1,30.9-12c10.8-8.1,24-18,49.2-18,24.9,0,39.1,9.9,49.9,18,9.3,6.9,15.9,12,30.9,12s21.9-5.1,31.2-12c7.5-5.7,16.5-12.3,30-15.6A103.841,103.841,0,0,0,462.884,241H49.116A103.835,103.835,0,0,0,33.9,273.4Z" fill="#ff5a01"/>
  <path id="Path_9" data-name="Path 9" d="M463.093,361A103.953,103.953,0,0,0,482,303.4c-6,2.1-10.5,5.7-15.9,9.6-10.8,8.1-24,18-49.2,18-24.9,0-38.1-9.9-48.9-18-9.3-6.9-16.9-12-31.9-12s-21.9,5.1-31.2,12c-10.5,8.1-24,18-48.9,18s-38.4-9.9-48.9-18c-9.3-6.9-16.2-12-31.2-12s-22.6,5.1-31.9,12c-10.8,8.1-24,18-48.9,18-25.2,0-38.4-9.9-49.2-18-5.4-3.9-9.9-7.5-15.9-9.6A103.951,103.951,0,0,0,48.906,361Z" fill="#ff5a01"/>
</svg>
