<svg xmlns="http://www.w3.org/2000/svg" width="511.999" height="395.752" viewBox="0 0 511.999 395.752">
  <g id="burger" transform="translate(0 -58.124)">
    <g id="Group_93" data-name="Group 93">
      <g id="Group_92" data-name="Group 92">
        <path id="Path_69" data-name="Path 69" d="M413.949,155.583a10.144,10.144,0,0,0-3.24-2.16,10.584,10.584,0,0,0-1.87-.57,10,10,0,0,0-11.96,9.8,9.951,9.951,0,0,0,.2,1.96,10.1,10.1,0,0,0,.57,1.87,10.633,10.633,0,0,0,.92,1.73,10.492,10.492,0,0,0,1.24,1.52,9.937,9.937,0,0,0,9.03,2.73,10.584,10.584,0,0,0,1.87-.57,10.144,10.144,0,0,0,3.24-2.16,9.861,9.861,0,0,0,2.17-3.25,10.1,10.1,0,0,0,.57-1.87,10.034,10.034,0,0,0-2.74-9.03Z" fill="#ff5a01"/>
      </g>
    </g>
    <g id="Group_95" data-name="Group 95">
      <g id="Group_94" data-name="Group 94">
        <path id="Path_70" data-name="Path 70" d="M115.289,385.873a9.392,9.392,0,0,0-.57-1.87,10.582,10.582,0,0,0-.91-1.73,10.751,10.751,0,0,0-1.25-1.52,9.57,9.57,0,0,0-1.52-1.24,10.147,10.147,0,0,0-1.72-.92,10.436,10.436,0,0,0-1.88-.57,9.847,9.847,0,0,0-3.9,0,10.1,10.1,0,0,0-1.87.57,9.869,9.869,0,0,0-1.73.92,9.57,9.57,0,0,0-1.52,1.24,10.041,10.041,0,0,0-1.24,1.52,10.634,10.634,0,0,0-.92,1.73,9.392,9.392,0,0,0-.57,1.87,9.655,9.655,0,0,0,0,3.91,9.392,9.392,0,0,0,.57,1.87,10.635,10.635,0,0,0,.92,1.73,10.04,10.04,0,0,0,1.24,1.52,9.57,9.57,0,0,0,1.52,1.24,9.871,9.871,0,0,0,1.73.92,10.1,10.1,0,0,0,1.87.57,9.606,9.606,0,0,0,3.9,0,10.436,10.436,0,0,0,1.88-.57,10.145,10.145,0,0,0,1.72-.92,9.615,9.615,0,0,0,1.52-1.24,10.752,10.752,0,0,0,1.25-1.52,10.58,10.58,0,0,0,.91-1.73,9.392,9.392,0,0,0,.57-1.87,9.655,9.655,0,0,0,0-3.91Z" fill="#ff5a01"/>
      </g>
    </g>
    <g id="Group_97" data-name="Group 97">
      <g id="Group_96" data-name="Group 96">
        <path id="Path_71" data-name="Path 71" d="M512,222.726A32.364,32.364,0,0,0,489.992,192.1C488.364,117.947,427.536,58.124,353,58.124H159c-74.538,0-135.366,59.823-136.994,133.978A32.22,32.22,0,0,0,3.847,237.929a44.931,44.931,0,0,0-.8,8.427v.708A44.676,44.676,0,0,0,19.745,281.9a45.049,45.049,0,0,0,2.228,71.7v26.668a73.691,73.691,0,0,0,73.608,73.608H416.417a73.691,73.691,0,0,0,73.608-73.608V353.6a45.021,45.021,0,0,0,2.56-71.4,44.671,44.671,0,0,0,16.361-34.562v-.708a44.862,44.862,0,0,0-.877-8.845A32.082,32.082,0,0,0,512,222.726Zm-467.966-49.5H366.474a10,10,0,0,0,0-20H49.737A117.228,117.228,0,0,1,159,78.123H353A117.178,117.178,0,0,1,469.932,190.418H42.068A117.03,117.03,0,0,1,44.033,173.229ZM23.052,316.9A25.122,25.122,0,0,1,48.146,291.8h117.3L220.79,341.99H48.146A25.122,25.122,0,0,1,23.052,316.9Zm.976-62.945c.422.111.847.215,1.275.309,7.421,1.634,14.68,8,22.365,14.744,1.045.917,2.113,1.854,3.206,2.8H47.793A24.787,24.787,0,0,1,24.028,253.951ZM332.755,343.7l57.233-51.9,49.9.57-81.871,74.24Zm7.861,34.126h-45.5l17.467-15.839H323.15Zm19.6-86.027-82.5,74.811-82.5-74.811Zm-59.529-20q1.273-1.263,2.49-2.493c9.531-9.587,17.059-17.16,32.89-17.16s23.359,7.573,32.89,17.162q1.218,1.225,2.489,2.491H300.686Zm-160.13,0c.848-.841,1.677-1.675,2.489-2.492,9.531-9.588,17.059-17.161,32.89-17.161s23.358,7.573,32.888,17.16q1.22,1.227,2.49,2.493ZM416.418,433.875H95.582a53.669,53.669,0,0,1-53.608-53.608V361.992H242.846l17.467,15.839H145.9a10,10,0,1,0,0,20H467.07A53.7,53.7,0,0,1,416.418,433.875Zm53.608-56.046h-94.6l17.467-15.839h77.133Zm-6.174-35.837H414.946l54.624-49.533a25.1,25.1,0,0,1-5.718,49.533Zm-2.728-70.19.262-.227.1-.087.342-.3q1.272-1.107,2.5-2.187a138.129,138.129,0,0,1,12.04-9.819,30.057,30.057,0,0,1,10.326-4.925l.359-.081.04-.01.317-.076.065-.016.28-.07.14-.037.2-.052a.377.377,0,0,0,.048-.012,24.815,24.815,0,0,1-19.691,18.1,9.983,9.983,0,0,0-2.016-.2Zm21.271-37.073a40.745,40.745,0,0,0-4.536,1.281c-10.109,3.489-18.327,10.6-26.283,17.58l-.434.381c-9.178,8.052-17.923,15.723-29.033,17.834H408.963c-11.249-1.93-17.833-8.552-25.823-16.591-10.213-10.275-22.923-23.062-47.074-23.062s-36.86,12.786-47.074,23.06c-7.992,8.04-14.576,14.663-25.829,16.593H248.836c-11.253-1.93-17.837-8.553-25.829-16.593-10.213-10.274-22.923-23.06-47.072-23.06s-36.861,12.787-47.074,23.062c-7.991,8.039-14.574,14.661-25.824,16.591H95.972c-14.134,0-24.325-8.939-35.113-18.4-9.248-8.112-18.81-16.5-31.252-19.241a12.237,12.237,0,0,1-7.025-4.453,10.028,10.028,0,0,0-1.153-1.252,12.287,12.287,0,0,1,10.879-18.036H479.692a12.3,12.3,0,0,1,2.7,24.31Z" fill="#ff5a01"/>
      </g>
    </g>
  </g>
</svg>
