<svg xmlns="http://www.w3.org/2000/svg" width="512" height="511.998" viewBox="0 0 512 511.998">
  <g id="cake" transform="translate(0 -0.002)">
    <path id="Path_10" data-name="Path 10" d="M424.615,44.077a15,15,0,0,0-12.57-1.235c-42.78,14.972-85.428,29.823-119.6,41.708A74.975,74.975,0,0,0,250.832,61.3a79.216,79.216,0,0,0-42.9-57.6l-4.223-2.111A15,15,0,1,0,190.292,28.42l4.223,2.111a49.426,49.426,0,0,1,25.75,31.376A75.131,75.131,0,0,0,162.2,129.815C113.329,146.8,61.453,164.85,10.045,182.843A15,15,0,0,0,0,197H0V357H.013a14.992,14.992,0,0,0,10.054,14.165l402,140a15,15,0,0,0,10.2-.12c.406-.1.915-.213,1.514-.352,8.292-1.917,30.318-7.01,50.251-23.4C499.226,466.588,512,436.207,512,397V197c0-4.142-.993-102.014-87.385-152.923ZM237,90a45,45,0,1,1-45,45,45.051,45.051,0,0,1,45-45Zm-70.654,70.133A74.987,74.987,0,0,0,308,110.9c31.313-10.893,69.014-24.023,107.177-37.374C481.22,116.806,482,196.181,482,197c0,69.574-50.127,111.266-67.09,123.376l-82.955-29.034A15,15,0,0,0,312,305.5V367a15,15,0,0,1-30,0V284.5a15,15,0,0,0-10.08-14.17L60.6,196.953c35.859-12.516,71.5-24.915,105.749-36.82ZM252,343.414,30,266.33V218.086L252,295.17ZM30,298.087l222.807,77.364a44.954,44.954,0,0,0,73.463,25.687L402,427.643v48.25L30,346.341Zm372,97.771-60.66-21.23A45.022,45.022,0,0,0,342,367V326.644l60,21ZM482,397c0,41.032-16.4,67.328-50,79.975V345.059a203.941,203.941,0,0,0,50-51.129Z" fill="#ff5a01"/>
    <circle id="Ellipse_7" data-name="Ellipse 7" cx="15" cy="15" r="15" transform="translate(397 117)" fill="#ff5a01"/>
    <circle id="Ellipse_8" data-name="Ellipse 8" cx="15" cy="15" r="15" transform="translate(417 187)" fill="#ff5a01"/>
    <circle id="Ellipse_9" data-name="Ellipse 9" cx="15" cy="15" r="15" transform="translate(367 247)" fill="#ff5a01"/>
    <circle id="Ellipse_10" data-name="Ellipse 10" cx="15" cy="15" r="15" transform="translate(337 177)" fill="#ff5a01"/>
  </g>
</svg>
