<svg id="fb" xmlns="http://www.w3.org/2000/svg" width="23" height="23" viewBox="0 0 23 23">
  <path id="Path_12" data-name="Path 12" d="M20.125,0H2.875A2.878,2.878,0,0,0,0,2.875v17.25A2.878,2.878,0,0,0,2.875,23h17.25A2.878,2.878,0,0,0,23,20.125V2.875A2.878,2.878,0,0,0,20.125,0Z" fill="#1976d2"/>
  <path id="Path_13" data-name="Path 13" d="M202.781,103.188h-3.594v-2.875c0-.794.644-.719,1.438-.719h1.438V96h-2.875a4.312,4.312,0,0,0-4.312,4.313v2.875H192v3.594h2.875v7.906h4.313v-7.906h2.156Z" transform="translate(-183.375 -91.688)" fill="#fafafa"/>
</svg>
