<svg xmlns="http://www.w3.org/2000/svg" width="512" height="510.487" viewBox="0 0 512 510.487">
  <g id="hamburger" transform="translate(0 -0.756)">
    <g id="Group_31" data-name="Group 31">
      <path id="Path_24" data-name="Path 24" d="M186.826,85.343a7.5,7.5,0,0,0,6.6-3.935l6.5-12.035a7.5,7.5,0,0,0-13.192-7.13l-6.5,12.035a7.5,7.5,0,0,0,6.589,11.065Z" fill="#ff5a01"/>
      <path id="Path_25" data-name="Path 25" d="M263.408,78.666V64.986a7.5,7.5,0,1,0-15,0v13.68a7.5,7.5,0,0,0,15,0Z" fill="#ff5a01"/>
      <path id="Path_26" data-name="Path 26" d="M325.175,85.242a7.5,7.5,0,0,0,6.479-11.261l-6.863-11.834a7.5,7.5,0,1,0-12.972,7.524L318.682,81.5a7.5,7.5,0,0,0,6.493,3.737Z" fill="#ff5a01"/>
      <path id="Path_27" data-name="Path 27" d="M512,231.606V225a41.031,41.031,0,0,0-17.791-33.8,35.613,35.613,0,0,0,11.227-39.609,211.073,211.073,0,0,0-67.893-95.215C392.27,20.558,331.227,1.844,256.108.757h-.217c-33.951.491-65.4,4.645-93.479,12.346a7.5,7.5,0,1,0,3.966,14.462C193.2,20.207,223.356,16.233,256,15.753c162.214,2.39,217.053,89.26,235.3,140.839a20.453,20.453,0,0,1-19.22,27.357H39.919a20.263,20.263,0,0,1-16.728-8.66,19.985,19.985,0,0,1-2.6-18.394C33.9,119.1,64.44,67.883,134.419,38.535a7.5,7.5,0,0,0-5.8-13.829C94.546,39,66.034,59.642,43.878,86.07A211.192,211.192,0,0,0,6.449,151.917a34.806,34.806,0,0,0,4.505,32.039,35.4,35.4,0,0,0,6.855,7.232A41.03,41.03,0,0,0,0,225v6.606a41.122,41.122,0,0,0,32.767,40.211l-.15,44.776A41.117,41.117,0,0,0,0,356.765v6.606a41.122,41.122,0,0,0,32.737,40.2,96.216,96.216,0,0,0,4.305,34.945c12.263,38.4,45.474,56.688,71.174,65.267a148.287,148.287,0,0,0,47.044,7.456H356.741a148.281,148.281,0,0,0,47.043-7.456c25.7-8.58,58.912-26.867,71.174-65.267a96.214,96.214,0,0,0,4.3-34.945A41.121,41.121,0,0,0,512,363.371v-6.606a41.106,41.106,0,0,0-32.767-40.194V271.817A41.121,41.121,0,0,0,512,231.606ZM15,363.371v-6.606a26.08,26.08,0,0,1,17.57-24.611l-.015,4.419a27.275,27.275,0,0,0,44.666,20.989,24.3,24.3,0,0,1,16.792-6.128c.863,0,1.676.035,2.469.084v37.909H41.051A26.085,26.085,0,0,1,15,363.371ZM313.788,304.72H464.237v31.856a11.965,11.965,0,0,1-6.988,11.058,12.133,12.133,0,0,1-13.16-1.654,38.99,38.99,0,0,0-26.321-9.543c-16.1,0-24.353,6.538-31.635,12.307-6.394,5.065-11.445,9.065-22.325,9.065s-15.931-4-22.325-9.065c-7.282-5.768-15.536-12.307-31.636-12.307s-24.714,6.824-31.636,12.307c-6.394,5.065-11.444,9.065-22.323,9.065s-15.93-4-22.323-9.065c-6.921-5.483-15.536-12.307-31.635-12.307s-24.353,6.538-31.636,12.307c-4.558,3.611-8.451,6.667-14.245,8.129V314.654a9.945,9.945,0,0,1,9.934-9.934H278.629a7.5,7.5,0,1,0,0-15H165.982a24.958,24.958,0,0,0-24.93,24.93V407a14.789,14.789,0,1,1-29.578,0V314.654a24.958,24.958,0,0,0-24.93-24.93H47.763V272.658H464.237v17.066H313.788a7.5,7.5,0,0,0,0,15Zm-227.245,0a9.946,9.946,0,0,1,9.935,9.934V336.5c-.8-.037-1.62-.063-2.469-.063A38.981,38.981,0,0,0,67.7,345.975a12.136,12.136,0,0,1-13.163,1.654,11.964,11.964,0,0,1-6.987-11.057V304.72Zm374.13,129.238c-8.308,26.017-29.046,44.725-61.638,55.6a133.293,133.293,0,0,1-42.3,6.685H155.26a133.293,133.293,0,0,1-42.295-6.685c-63.845-21.312-66.519-68.39-65.308-85.14H96.479v2.572a29.785,29.785,0,1,0,59.57,0v-2.572H464.3A81,81,0,0,1,460.673,433.958ZM497,356.765v6.606a26.086,26.086,0,0,1-26.056,26.056h-314.9V372.179c10.995-1.754,17.607-6.968,23.556-11.68,6.394-5.065,11.445-9.065,22.325-9.065s15.93,4,22.323,9.065c6.922,5.483,15.536,12.307,31.635,12.307s24.353-6.538,31.635-12.307c6.394-5.065,11.444-9.065,22.324-9.065s15.931,4,22.325,9.065c7.282,5.768,15.536,12.307,31.636,12.307s24.354-6.538,31.636-12.307c6.394-5.065,11.444-9.065,22.324-9.065a24.3,24.3,0,0,1,16.8,6.133,27.275,27.275,0,0,0,44.666-20.99v-4.508A26.092,26.092,0,0,1,497,356.765Zm-26.055-99.1H41.051a26.086,26.086,0,0,1-26.056-26.056V225a26.086,26.086,0,0,1,26.056-26.056h429.9A26.086,26.086,0,0,1,497,225v6.606A26.085,26.085,0,0,1,470.949,257.662Z" fill="#ff5a01"/>
    </g>
  </g>
</svg>
