<svg xmlns="http://www.w3.org/2000/svg" width="512" height="512.001" viewBox="0 0 512 512.001">
  <g id="pizza" transform="translate(-0.001 0)">
    <g id="Group_18" data-name="Group 18">
      <g id="Group_17" data-name="Group 17">
        <path id="Path_17" data-name="Path 17" d="M509.026,2.885a9.995,9.995,0,0,0-10.384-2.3L83.289,148.68A54.674,54.674,0,0,0,4.165,216.212,536.215,536.215,0,0,0,120.974,391.028,536.188,536.188,0,0,0,295.79,507.837a54.665,54.665,0,0,0,71.171-72.085l144.5-422.514A10,10,0,0,0,509.026,2.885Zm-362.847,144.6,44.02-15.694a25.486,25.486,0,1,1-44.02,15.694Zm202.6,323.088a34.738,34.738,0,0,1-45.338,18.779C175.4,436.321,75.681,336.6,22.644,208.557A34.7,34.7,0,0,1,86.76,182a447.21,447.21,0,0,0,97.429,145.813A447.226,447.226,0,0,0,330,425.241,34.736,34.736,0,0,1,348.782,470.577Zm88.843-303.248a25.787,25.787,0,0,1-2.715-.192,25.489,25.489,0,1,1,18.436-45.77Zm22.368-65.406A45.483,45.483,0,1,0,430.98,186.76L411.1,244.879l-22.858-17.54a10,10,0,1,0-12.175,15.867l28.2,21.642L352.582,416a54.475,54.475,0,0,0-14.922-9.241c-105.98-43.9-188.52-126.439-232.417-232.417a54.659,54.659,0,0,0-5.609-10.26l26.779-9.548a45.534,45.534,0,0,0,39.256,39.782,46.124,46.124,0,0,0,6.032.4,45.476,45.476,0,0,0,38.238-69.961L334.246,80.434l4.711,11.374a10,10,0,1,0,18.478-7.654l-4.326-10.445L485.828,26.387Z" fill="#ff5a01"/>
      </g>
    </g>
    <g id="Group_20" data-name="Group 20">
      <g id="Group_19" data-name="Group 19">
        <path id="Path_18" data-name="Path 18" d="M108,268.276c-.03-.047-.113-.174-.145-.22a10.017,10.017,0,1,0,.145.22Z" fill="#ff5a01"/>
      </g>
    </g>
    <g id="Group_22" data-name="Group 22">
      <g id="Group_21" data-name="Group 21">
        <path id="Path_19" data-name="Path 19" d="M92.791,243.433a473.306,473.306,0,0,1-26.036-53.147,10,10,0,0,0-18.476,7.654,493.222,493.222,0,0,0,27.14,55.4,10,10,0,1,0,17.372-9.908Z" fill="#ff5a01"/>
      </g>
    </g>
    <g id="Group_24" data-name="Group 24">
      <g id="Group_23" data-name="Group 23">
        <path id="Path_20" data-name="Path 20" d="M312.933,127.987a45.491,45.491,0,1,0,39.161,51.036A45.819,45.819,0,0,0,312.933,127.987Zm19.333,48.426a25.538,25.538,0,0,1-25.227,22.166,25.816,25.816,0,0,1-3.372-.222,25.491,25.491,0,0,1,3.283-50.763,25.816,25.816,0,0,1,3.372.222A25.519,25.519,0,0,1,332.266,176.413Z" fill="#ff5a01"/>
      </g>
    </g>
    <g id="Group_26" data-name="Group 26">
      <g id="Group_25" data-name="Group 25">
        <path id="Path_21" data-name="Path 21" d="M310.331,252.374a45.45,45.45,0,0,0-51.038,39.162,45.489,45.489,0,0,0,39.161,51.039,45.49,45.49,0,0,0,11.877-90.2ZM329.664,300.8a25.539,25.539,0,0,1-25.228,22.166,25.964,25.964,0,0,1-3.37-.222,25.491,25.491,0,0,1,3.282-50.764,25.818,25.818,0,0,1,3.372.222A25.521,25.521,0,0,1,329.664,300.8Z" fill="#ff5a01"/>
      </g>
    </g>
    <g id="Group_28" data-name="Group 28">
      <g id="Group_27" data-name="Group 27">
        <path id="Path_22" data-name="Path 22" d="M244.375,210.946,213.639,206.9a10,10,0,1,0-2.612,19.828l30.736,4.047a10,10,0,0,0,2.612-19.828Z" fill="#ff5a01"/>
      </g>
    </g>
    <g id="Group_30" data-name="Group 30">
      <g id="Group_29" data-name="Group 29">
        <path id="Path_23" data-name="Path 23" d="M228.79,284.743l-2.714-20.624a10,10,0,1,0-19.828,2.61l2.715,20.624a10,10,0,1,0,19.827-2.61Z" fill="#ff5a01"/>
      </g>
    </g>
  </g>
</svg>
