<svg id="spaguetti" xmlns="http://www.w3.org/2000/svg" width="512" height="512" viewBox="0 0 512 512">
  <g id="Group_55" data-name="Group 55">
    <g id="Group_54" data-name="Group 54">
      <path id="Path_55" data-name="Path 55" d="M503.467,409.6H8.533A8.531,8.531,0,0,0,0,418.133,93.978,93.978,0,0,0,93.867,512H418.134A93.978,93.978,0,0,0,512,418.133,8.525,8.525,0,0,0,503.467,409.6Zm-85.334,85.333H93.867a76.91,76.91,0,0,1-76.331-68.267H494.455A76.9,76.9,0,0,1,418.133,494.933Z" fill="#ff5a01"/>
    </g>
  </g>
  <g id="Group_57" data-name="Group 57">
    <g id="Group_56" data-name="Group 56">
      <path id="Path_56" data-name="Path 56" d="M256.009,281.6H255.9a135.747,135.747,0,0,0-90.931,34.876l11.409,12.681a118.769,118.769,0,0,1,79.531-30.49H256c47.292,0,87.723,24.7,103.006,62.9l15.855-6.332C356.966,310.5,310.306,281.6,256.009,281.6Z" fill="#ff5a01"/>
    </g>
  </g>
  <g id="Group_59" data-name="Group 59">
    <g id="Group_58" data-name="Group 58">
      <path id="Path_57" data-name="Path 57" d="M321.229,339.234a102.534,102.534,0,0,0-144.162,13.739l13.158,10.863a85.32,85.32,0,0,1,135.6,5.273l13.978-9.8A103.352,103.352,0,0,0,321.229,339.234Z" fill="#ff5a01"/>
    </g>
  </g>
  <g id="Group_61" data-name="Group 61">
    <g id="Group_60" data-name="Group 60">
      <path id="Path_58" data-name="Path 58" d="M303.778,369.374a68.353,68.353,0,0,0-96.546.973l12.194,11.947a51.2,51.2,0,0,1,87.774,35.84h17.067A68.605,68.605,0,0,0,303.778,369.374Z" fill="#ff5a01"/>
    </g>
  </g>
  <g id="Group_63" data-name="Group 63">
    <g id="Group_62" data-name="Group 62">
      <path id="Path_59" data-name="Path 59" d="M350.242,315.733h-8.908V332.8H349.9c48.444.188,89.813,37.632,93.867,86.042l17-1.417C456,360.329,407.467,315.733,350.242,315.733Z" fill="#ff5a01"/>
    </g>
  </g>
  <g id="Group_65" data-name="Group 65">
    <g id="Group_64" data-name="Group 64">
      <path id="Path_60" data-name="Path 60" d="M400.751,369.451a76.817,76.817,0,0,0-108.441,6.042l12.715,11.383a59.73,59.73,0,0,1,103.791,32.333l16.939-2.15A76.855,76.855,0,0,0,400.751,369.451Z" fill="#ff5a01"/>
    </g>
  </g>
  <g id="Group_67" data-name="Group 67">
    <g id="Group_66" data-name="Group 66">
      <path id="Path_61" data-name="Path 61" d="M360.064,385.263a42.713,42.713,0,0,0-51.917,30.754l16.538,4.233a25.6,25.6,0,0,1,49.6,0l16.538-4.233A42.67,42.67,0,0,0,360.064,385.263Z" fill="#ff5a01"/>
    </g>
  </g>
  <g id="Group_69" data-name="Group 69">
    <g id="Group_68" data-name="Group 68">
      <path id="Path_62" data-name="Path 62" d="M170.846,315.921A110.935,110.935,0,0,0,51.234,417.434l17.007,1.4a93.852,93.852,0,0,1,101.214-85.888,94.334,94.334,0,0,1,39.586,12.442l8.593-14.754A111.6,111.6,0,0,0,170.846,315.921Z" fill="#ff5a01"/>
    </g>
  </g>
  <g id="Group_71" data-name="Group 71">
    <g id="Group_70" data-name="Group 70">
      <path id="Path_63" data-name="Path 63" d="M171.529,350.259a76.9,76.9,0,0,0-85.615,66.833l16.939,2.082a59.729,59.729,0,0,1,118.563,0l16.956-2.082A76.693,76.693,0,0,0,171.529,350.259Z" fill="#ff5a01"/>
    </g>
  </g>
  <g id="Group_73" data-name="Group 73">
    <g id="Group_72" data-name="Group 72">
      <path id="Path_64" data-name="Path 64" d="M172.919,385.476a42.654,42.654,0,0,0-52.071,30.489l16.512,4.318a25.606,25.606,0,0,1,49.544.008l16.5-4.326A42.7,42.7,0,0,0,172.919,385.476Z" fill="#ff5a01"/>
    </g>
  </g>
  <g id="Group_75" data-name="Group 75">
    <g id="Group_74" data-name="Group 74">
      <path id="Path_65" data-name="Path 65" d="M256,384a34.167,34.167,0,0,0-34.133,34.133h17.067a17.067,17.067,0,0,1,34.134,0h17.067A34.17,34.17,0,0,0,256,384Z" fill="#ff5a01"/>
    </g>
  </g>
  <g id="Group_77" data-name="Group 77">
    <g id="Group_76" data-name="Group 76">
      <rect id="Rectangle_1" data-name="Rectangle 1" width="68.267" height="17.067" transform="translate(85.333 34.133)" fill="#ff5a01"/>
    </g>
  </g>
  <g id="Group_79" data-name="Group 79">
    <g id="Group_78" data-name="Group 78">
      <rect id="Rectangle_2" data-name="Rectangle 2" width="51.2" height="17.067" transform="translate(102.4 68.267)" fill="#ff5a01"/>
    </g>
  </g>
  <g id="Group_81" data-name="Group 81">
    <g id="Group_80" data-name="Group 80">
      <path id="Path_66" data-name="Path 66" d="M66.543,183.5a51.809,51.809,0,0,1,0-51.26,68.954,68.954,0,0,0,0-68.207,51.809,51.809,0,0,1,0-51.26A8.534,8.534,0,0,0,59.136,0h-25V17.067H46.08A68.993,68.993,0,0,0,51.729,72.5a51.809,51.809,0,0,1,0,51.26,68.954,68.954,0,0,0,0,68.207,51.809,51.809,0,0,1,0,51.26C39.7,264.27,39.7,290.4,51.379,310.751A131.713,131.713,0,0,1,57.95,328.3l16.367-4.821a147.714,147.714,0,0,0-7.774-20.514,51.809,51.809,0,0,1,0-51.26A68.956,68.956,0,0,0,66.543,183.5Z" fill="#ff5a01"/>
    </g>
  </g>
  <g id="Group_83" data-name="Group 83">
    <g id="Group_82" data-name="Group 82">
      <path id="Path_67" data-name="Path 67" d="M511.983,62.208a45.5,45.5,0,0,0-46.566-44.032L216.764,25.489,203.75,12.476A42.376,42.376,0,0,0,173.611,0H94.464a8.532,8.532,0,0,0-7.407,4.292,68.954,68.954,0,0,0,0,68.207,51.809,51.809,0,0,1,0,51.26,68.954,68.954,0,0,0,0,68.207,51.809,51.809,0,0,1,0,51.26,68.954,68.954,0,0,0,0,68.207,51.432,51.432,0,0,1,3.072,6.366l15.838-6.349a67.566,67.566,0,0,0-4.1-8.482,51.809,51.809,0,0,1,0-51.26,68.954,68.954,0,0,0,0-68.207,51.809,51.809,0,0,1,0-51.26,67.976,67.976,0,0,0,5.649-12.774H173.6a42.39,42.39,0,0,0,30.148-12.484l12.911-12.911,247.381,14.541c.887.051,2.125.034,2.645.077A45.368,45.368,0,0,0,512,63.4Zm-45.3,29.414a7.556,7.556,0,0,0-1.621-.043L213.837,76.817A8.408,8.408,0,0,0,207.3,79.3L191.684,94.916a25.433,25.433,0,0,1-18.091,7.484H110.762a68.833,68.833,0,0,0-8.892-38.374,51.858,51.858,0,0,1-2.193-46.959H173.6a25.412,25.412,0,0,1,18.082,7.492L207.3,40.175a8.35,8.35,0,0,0,6.281,2.492L465.9,35.234c15.932-.435,28.578,11.887,29.03,28.16A28.288,28.288,0,0,1,466.68,91.622Z" fill="#ff5a01"/>
    </g>
  </g>
  <g id="Group_85" data-name="Group 85">
    <g id="Group_84" data-name="Group 84">
      <path id="Path_68" data-name="Path 68" d="M136,183.5a51.814,51.814,0,0,1-.009-51.251,68.391,68.391,0,0,0,7.415-19l-16.648-3.763a51.5,51.5,0,0,1-5.572,14.285,68.954,68.954,0,0,0,0,68.207,51.819,51.819,0,0,1-.009,51.277,68.924,68.924,0,0,0-2.33,63.693l15.4-7.33a51.825,51.825,0,0,1,1.749-47.906A68.953,68.953,0,0,0,136,183.5Z" fill="#ff5a01"/>
    </g>
  </g>
  <g id="Group_87" data-name="Group 87">
    <g id="Group_86" data-name="Group 86">
      <rect id="Rectangle_3" data-name="Rectangle 3" width="17.067" height="17.067" transform="translate(34.133 34.133)" fill="#ff5a01"/>
    </g>
  </g>
  <g id="Group_89" data-name="Group 89">
    <g id="Group_88" data-name="Group 88">
      <rect id="Rectangle_4" data-name="Rectangle 4" width="25.6" height="17.067" transform="translate(34.133 68.267)" fill="#ff5a01"/>
    </g>
  </g>
  <g id="Group_91" data-name="Group 91">
    <g id="Group_90" data-name="Group 90">
      <rect id="Rectangle_5" data-name="Rectangle 5" width="34.133" height="17.067" transform="translate(34.133 102.4)" fill="#ff5a01"/>
    </g>
  </g>
</svg>
