<svg id="vegetables" xmlns="http://www.w3.org/2000/svg" width="512" height="512" viewBox="0 0 512 512">
  <g id="Group_33" data-name="Group 33">
    <g id="Group_32" data-name="Group 32">
      <path id="Path_28" data-name="Path 28" d="M70.127,453.1l-.092-.07A10,10,0,0,0,57.872,468.9l.092.07A10,10,0,0,0,70.127,453.1Z" fill="#ff5a01"/>
    </g>
  </g>
  <g id="Group_35" data-name="Group 35">
    <g id="Group_34" data-name="Group 34">
      <path id="Path_29" data-name="Path 29" d="M70.127,371.1l-.092-.07A10,10,0,0,0,57.872,386.9l.092.07A10,10,0,0,0,70.127,371.1Z" fill="#ff5a01"/>
    </g>
  </g>
  <g id="Group_37" data-name="Group 37">
    <g id="Group_36" data-name="Group 36">
      <path id="Path_30" data-name="Path 30" d="M70.127,289.1l-.092-.07A10,10,0,0,0,57.872,304.9l.092.07A10,10,0,0,0,70.127,289.1Z" fill="#ff5a01"/>
    </g>
  </g>
  <g id="Group_39" data-name="Group 39">
    <g id="Group_38" data-name="Group 38">
      <path id="Path_31" data-name="Path 31" d="M454.04,453.065l-.093-.07a10,10,0,1,0-12.08,15.94l.093.07a10,10,0,1,0,12.08-15.94Z" fill="#ff5a01"/>
    </g>
  </g>
  <g id="Group_41" data-name="Group 41">
    <g id="Group_40" data-name="Group 40">
      <path id="Path_32" data-name="Path 32" d="M454.04,371.066l-.093-.07a10,10,0,1,0-12.08,15.939l.093.07a10,10,0,1,0,12.08-15.939Z" fill="#ff5a01"/>
    </g>
  </g>
  <g id="Group_43" data-name="Group 43">
    <g id="Group_42" data-name="Group 42">
      <path id="Path_33" data-name="Path 33" d="M454.04,289.066l-.093-.07a10,10,0,1,0-12.08,15.939l.093.07a10,10,0,1,0,12.08-15.939Z" fill="#ff5a01"/>
    </g>
  </g>
  <g id="Group_45" data-name="Group 45">
    <g id="Group_44" data-name="Group 44">
      <path id="Path_34" data-name="Path 34" d="M369.472,328h-.13a10,10,0,1,0,0,20h.13a10,10,0,0,0,0-20Z" fill="#ff5a01"/>
    </g>
  </g>
  <g id="Group_47" data-name="Group 47">
    <g id="Group_46" data-name="Group 46">
      <path id="Path_35" data-name="Path 35" d="M142.658,410h-.13a10,10,0,0,0,0,20h.13a10,10,0,0,0,0-20Z" fill="#ff5a01"/>
    </g>
  </g>
  <g id="Group_49" data-name="Group 49">
    <g id="Group_48" data-name="Group 48">
      <path id="Path_36" data-name="Path 36" d="M80.79,185.19a9.995,9.995,0,1,0,2.93,7.08A10.076,10.076,0,0,0,80.79,185.19Z" fill="#ff5a01"/>
    </g>
  </g>
  <g id="Group_51" data-name="Group 51">
    <g id="Group_50" data-name="Group 50">
      <path id="Path_37" data-name="Path 37" d="M502,246H460.466a59.5,59.5,0,0,0-2.839-104.8,59.54,59.54,0,0,0-83.463-76.254A69.136,69.136,0,0,0,334.31,52.314c-.973,0-1.938.034-2.9.074A77.369,77.369,0,0,0,188.453,43.93c-2.393-.222-4.8-.334-7.2-.334a77.413,77.413,0,0,0-71.3,47.3q-3.174-.969-6.454-1.7c1.146-12.781,5.2-22.579,12.117-29.167a26.8,26.8,0,0,1,12.332-6.976l-.139.023,0-.011a9.993,9.993,0,0,0-1.436-19.882,9.9,9.9,0,0,0-1.668.153l0-.017c-5.938.935-14.059,4.263-21.549,11.025V10a10,10,0,0,0-10-10h-24a10,10,0,0,0-10,10V47.391a120.33,120.33,0,0,0-24.886-22.97,10,10,0,0,0-10.943,16.74c.331.217,30.586,20.477,35.081,49.622C24.568,100.948,0,130.689,0,165.714,0,180.266,8.3,215.208,16.444,246H10A10,10,0,0,0,0,256V502a10,10,0,0,0,10,10H502a10,10,0,0,0,10-10V256A10,10,0,0,0,502,246ZM181.254,63.6a57.816,57.816,0,0,1,11.452,1.145,10,10,0,0,0,11.411-6.465A57.374,57.374,0,0,1,311.5,56.19a69.358,69.358,0,0,0-46.445,65.374,10,10,0,1,0,20,0,49.237,49.237,0,0,1,81.906-36.851,10,10,0,0,0,12.64.516,39.162,39.162,0,0,1,23.7-7.893,39.511,39.511,0,0,1,31.715,63.075,10,10,0,0,0,5.578,15.669,39.515,39.515,0,0,1-9.7,77.82,39.9,39.9,0,0,1-7.491-.719,10,10,0,0,0-11.3,6.464A39.32,39.32,0,0,1,409.161,246H396.537l40.949-58.7a10,10,0,0,0-2.662-14.046l-29.155-19.4a10,10,0,0,0-14.1,3.155l-14.579,24.14,11.934-60.369a10,10,0,0,0-7.8-11.734l-25.445-5.233a10,10,0,0,0-11.846,7.964l-3.265,17.535H317.235a10,10,0,0,0-10,10v57.544a74.115,74.115,0,0,0-72.617-59.794,73.365,73.365,0,0,0-44.487,14.862,74.739,74.739,0,0,0-24.032,31.2,111.194,111.194,0,0,0,1.9-17.4,74.325,74.325,0,0,0-10.16-37.482,36.628,36.628,0,0,1,41.676-23.273,10,10,0,0,0,11.418-6.472,36.882,36.882,0,0,1,10.8-15.723,10,10,0,0,0-13-15.2A56.988,56.988,0,0,0,195.36,84.315q-1.576-.088-3.155-.088A56.647,56.647,0,0,0,144.177,110.9a83.821,83.821,0,0,0-15.891-12A57.394,57.394,0,0,1,181.254,63.6ZM365.622,238.655l37.666-62.365,11.947,7.951L372.153,246H364.17ZM353.113,198.8V171.03c.053-.21.111-.418.151-.634l8.369-44.944,5.745,1.182Zm-25.95,29.856a10.211,10.211,0,0,0,.072-1.153V149.309h5.879V246h-3.156q.041-.939.042-1.882A43.444,43.444,0,0,0,327.163,228.653ZM190,182c-.3,0-.587.019-.883.022a53.972,53.972,0,0,1,98.59,19.221,41.708,41.708,0,0,0-33.687,17.714A74.026,74.026,0,0,0,190,182Zm53.057,64H136.944a53.989,53.989,0,0,1,106.113,0ZM288,221.236c12.131,0,22,10.265,22,22.882,0,.631-.03,1.258-.079,1.882H266.078c-.049-.624-.079-1.251-.079-1.882C266,231.5,275.869,221.236,288,221.236ZM79.155,20h4V87.057c-1.341.013-2.675.049-4,.12ZM20.6,157.81a10.034,10.034,0,0,0,1.927.19H71.962a10,10,0,0,0,0-20H27.606C38.416,119.585,59.637,107.037,84,107.037c35.29,0,64,26.322,64,58.677,0,2.609-.417,7.423-2.006,16.286H106.275a10,10,0,0,0,0,20h33.206A73.881,73.881,0,0,0,116.7,246H37.141C26.216,205.214,20,176.152,20,165.714A54.059,54.059,0,0,1,20.6,157.81ZM492,328H404a10,10,0,0,0,0,20h88v62H176.606a10,10,0,0,0,0,20H492v62H20V430h88a10,10,0,0,0,0-20H20V348H335.394a10,10,0,0,0,0-20H20V266H492Z" fill="#ff5a01"/>
    </g>
  </g>
  <g id="Group_53" data-name="Group 53">
    <g id="Group_52" data-name="Group 52">
      <path id="Path_38" data-name="Path 38" d="M245.465,54h-.132a10,10,0,0,0,0,20h.132a10,10,0,1,0,0-20Z" fill="#ff5a01"/>
    </g>
  </g>
</svg>
